<svg width="33" height="33" viewBox="0 0 33 33" fill="none" xmlns="http://www.w3.org/2000/svg">
<g clip-path="url(#clip0)">
<path d="M2.06259 2.24556C-0.530659 4.93919 9.08747e-05 7.80056 9.08747e-05 16.4933C9.08747e-05 23.7121 -1.25941 30.9487 5.33234 32.6523C7.39072 33.1817 25.6287 33.1817 27.6843 32.6496C30.4288 31.9414 32.6618 29.7153 32.9671 25.8337C33.0097 25.2919 33.0097 7.70431 32.9657 7.15156C32.6412 3.01694 30.0961 0.634061 26.7425 0.151436C25.9738 0.0400609 25.8198 0.00706086 21.8763 0.000185862C7.88847 0.00706086 4.82222 -0.615814 2.06259 2.24556Z" fill="url(#paint0_linear)"/>
<path d="M16.4972 4.31629C11.5046 4.31629 6.76361 3.87217 4.95274 8.51967C4.20474 10.4392 4.31336 12.932 4.31336 16.5015C4.31336 19.6338 4.21299 22.5777 4.95274 24.482C6.75949 29.1323 11.539 28.6868 16.4945 28.6868C21.2754 28.6868 26.2047 29.1845 28.0376 24.482C28.787 22.5433 28.677 20.0875 28.677 16.5015C28.677 11.7413 28.9396 8.66817 26.631 6.36092C24.2935 4.02342 21.1324 4.31629 16.4917 4.31629H16.4972ZM15.4055 6.51217C25.8197 6.49567 27.1452 5.33792 26.4137 21.4213C26.1539 27.1097 21.8226 26.4854 16.4986 26.4854C6.79111 26.4854 6.51199 26.2077 6.51199 16.496C6.51199 6.67167 7.28199 6.51767 15.4055 6.50942V6.51217ZM23.001 8.53479C22.1939 8.53479 21.5394 9.18929 21.5394 9.99642C21.5394 10.8035 22.1939 11.458 23.001 11.458C23.8081 11.458 24.4626 10.8035 24.4626 9.99642C24.4626 9.18929 23.8081 8.53479 23.001 8.53479ZM16.4972 10.2439C13.0419 10.2439 10.241 13.0462 10.241 16.5015C10.241 19.9569 13.0419 22.7578 16.4972 22.7578C19.9526 22.7578 22.7521 19.9569 22.7521 16.5015C22.7521 13.0462 19.9526 10.2439 16.4972 10.2439ZM16.4972 12.4398C21.8666 12.4398 21.8735 20.5633 16.4972 20.5633C11.1292 20.5633 11.121 12.4398 16.4972 12.4398Z" fill="white"/>
</g>
<defs>
<linearGradient id="paint0_linear" x1="2.12587" y1="30.8924" x2="32.7959" y2="4.3479" gradientUnits="userSpaceOnUse">
<stop stop-color="#FFDD55"/>
<stop offset="0.5" stop-color="#FF543E"/>
<stop offset="1" stop-color="#C837AB"/>
</linearGradient>
<clipPath id="clip0">
<rect width="33" height="33" fill="white"/>
</clipPath>
</defs>
</svg>
