<svg width="24" height="24" viewBox="0 0 24 24" fill="none" xmlns="http://www.w3.org/2000/svg">
<g clip-path="url(#clip0)">
<path d="M9.93825 14.0619C7.64749 11.7712 7.13025 9.4804 7.01356 8.56261C6.98096 8.30884 7.06829 8.05434 7.24984 7.87405L9.10363 6.02109C9.37633 5.74856 9.42472 5.32384 9.22032 4.99695L6.26874 0.413779C6.0426 0.0518134 5.5783 -0.0788237 5.1966 0.112124L0.458253 2.34371C0.149588 2.4957 -0.0319649 2.82365 0.00308067 3.16592C0.251357 5.52454 1.27963 11.3226 6.97756 17.021C12.6755 22.7193 18.4727 23.7472 20.8326 23.9954C21.1749 24.0305 21.5028 23.8489 21.6548 23.5403L23.8864 18.8019C24.0766 18.421 23.9469 17.958 23.5864 17.7314L19.0032 14.7807C18.6765 14.5761 18.2518 14.6241 17.9791 14.8965L16.1261 16.7503C15.9458 16.9319 15.6913 17.0192 15.4376 16.9866C14.5198 16.8699 12.229 16.3527 9.93825 14.0619Z" fill="#F11616"/>
<path d="M19.0347 12.8276C18.5776 12.8276 18.2071 12.4571 18.2071 12C18.2032 8.57365 15.4266 5.79699 12.0002 5.79311C11.5431 5.79311 11.1726 5.42259 11.1726 4.96553C11.1726 4.50846 11.5431 4.13794 12.0002 4.13794C16.3403 4.14273 19.8575 7.6599 19.8623 12C19.8623 12.4571 19.4917 12.8276 19.0347 12.8276Z" fill="#F11616"/>
<path d="M23.1726 12.8276C22.7155 12.8276 22.345 12.4571 22.345 12C22.3386 6.28936 17.7108 1.66156 12.0002 1.65517C11.5431 1.65517 11.1726 1.28465 11.1726 0.827586C11.1726 0.370523 11.5431 0 12.0002 0C18.6246 0.0072976 23.9929 5.37561 24.0002 12C24.0002 12.2195 23.913 12.43 23.7578 12.5852C23.6026 12.7404 23.3921 12.8276 23.1726 12.8276Z" fill="#F11616"/>
</g>
<defs>
<clipPath id="clip0">
<rect width="24" height="24" fill="white"/>
</clipPath>
</defs>
</svg>
