<svg width="33" height="33" viewBox="0 0 33 33" fill="none" xmlns="http://www.w3.org/2000/svg">
<path d="M16.5 33C25.6127 33 33 25.6127 33 16.5C33 7.3873 25.6127 0 16.5 0C7.3873 0 0 7.3873 0 16.5C0 25.6127 7.3873 33 16.5 33Z" fill="#4D76A1"/>
<path fill-rule="evenodd" clip-rule="evenodd" d="M15.8768 23.7367H17.1719C17.1719 23.7367 17.5631 23.6938 17.7628 23.4785C17.9466 23.2808 17.9407 22.9096 17.9407 22.9096C17.9407 22.9096 17.9154 21.1719 18.7219 20.916C19.517 20.664 20.5379 22.5955 21.62 23.3382C22.4382 23.9003 23.06 23.777 23.06 23.777L25.9534 23.7367C25.9534 23.7367 27.467 23.6435 26.7493 22.4534C26.6905 22.3561 26.3313 21.5731 24.598 19.9642C22.7838 18.2803 23.0268 18.5527 25.2122 15.64C26.5431 13.8661 27.0752 12.7831 26.909 12.3192C26.7505 11.8775 25.7716 11.9942 25.7716 11.9942L22.5138 12.0145C22.5138 12.0145 22.2724 11.9816 22.0932 12.0887C21.9182 12.1937 21.8056 12.4384 21.8056 12.4384C21.8056 12.4384 21.29 13.8111 20.6023 14.9785C19.1517 17.4418 18.5716 17.5718 18.3346 17.4188C17.7831 17.0624 17.9207 15.9867 17.9207 15.2226C17.9207 12.8354 18.2828 11.8401 17.2157 11.5825C16.8616 11.4969 16.601 11.4404 15.6954 11.4313C14.533 11.4192 13.5491 11.4348 12.992 11.7078C12.6214 11.8892 12.3355 12.2937 12.5097 12.3169C12.725 12.3457 13.2126 12.4484 13.4712 12.8004C13.805 13.2546 13.7932 14.2746 13.7932 14.2746C13.7932 14.2746 13.985 17.0847 13.3453 17.4338C12.9061 17.6733 12.3038 17.1844 11.0105 14.9496C10.3478 13.8049 9.8475 12.5396 9.8475 12.5396C9.8475 12.5396 9.75103 12.3031 9.57896 12.1766C9.37013 12.0234 9.07836 11.9745 9.07836 11.9745L5.98266 11.9948C5.98266 11.9948 5.51793 12.0078 5.34734 12.2098C5.19557 12.3895 5.33528 12.7613 5.33528 12.7613C5.33528 12.7613 7.7589 18.4315 10.5031 21.289C13.0194 23.9088 15.8768 23.7367 15.8768 23.7367Z" fill="white"/>
</svg>
